<svg width="192" height="192" viewBox="0 0 192 192" fill="none" xmlns="http://www.w3.org/2000/svg">
<rect width="192" height="192" rx="5" fill="#C4C4C4" fill-opacity="0.18"/>
<path fill-rule="evenodd" clip-rule="evenodd" d="M157.773 108.353C162.317 108.348 166 104.663 166 100.118V34.2353C166 29.6871 162.313 26 157.765 26H91.8823C87.3341 26 83.647 29.6871 83.647 34.2353V100.118C83.647 104.662 87.3286 108.347 91.8722 108.353C91.8756 108.353 91.879 108.353 91.8823 108.353L100.118 108.353C100.122 108.353 100.127 108.353 100.132 108.353H124.809C124.814 108.353 124.819 108.353 124.824 108.353H157.765C157.767 108.353 157.77 108.353 157.773 108.353ZM116.588 124.824V157.765C116.588 162.313 120.275 166 124.824 166H157.765C162.313 166 166 162.313 166 157.765V124.824C166 120.275 162.313 116.588 157.765 116.588H124.824C120.275 116.588 116.588 120.275 116.588 124.824ZM108.353 124.815C108.348 120.271 104.663 116.588 100.118 116.588H80.6267C77.7465 116.588 75.4118 114.253 75.4118 111.373V100.128C75.4118 100.124 75.4118 100.121 75.4118 100.118V91.8823C75.4118 91.88 75.4118 91.8776 75.4118 91.8752C75.4079 87.3302 71.7223 83.647 67.1765 83.647H34.2353C29.6871 83.647 26 87.3341 26 91.8823V157.765C26 162.313 29.6871 166 34.2353 166H100.118C104.663 166 108.348 162.317 108.353 157.773C108.353 157.77 108.353 157.767 108.353 157.765V124.824C108.353 124.821 108.353 124.818 108.353 124.815ZM67.1823 75.4118C71.7255 75.4086 75.4079 71.7266 75.4118 67.1836C75.4118 67.1813 75.4118 67.1789 75.4118 67.1765V34.2353V34.2294C75.4086 29.6839 71.7227 26 67.1765 26H34.2353C29.6871 26 26 29.6871 26 34.2353V67.1765C26 71.7227 29.6839 75.4086 34.2294 75.4118H34.2353H67.1765H67.1823Z" fill="#218FA6"/>
</svg>
